<svg width="41" height="53" viewBox="0 0 41 53" fill="none" xmlns="http://www.w3.org/2000/svg">
<path d="M40.1666 52.083H0.833252V47.1663C0.833252 43.9064 2.12826 40.78 4.4334 38.4748C6.73853 36.1697 9.86496 34.8747 13.1249 34.8747H27.8749C31.1349 34.8747 34.2613 36.1697 36.5664 38.4748C38.8716 40.78 40.1666 43.9064 40.1666 47.1663V52.083ZM20.4999 29.958C18.5629 29.958 16.6449 29.5765 14.8553 28.8352C13.0658 28.094 11.4398 27.0075 10.0701 25.6378C8.70043 24.2682 7.61395 22.6421 6.87269 20.8526C6.13144 19.063 5.74992 17.145 5.74992 15.208C5.74992 13.271 6.13144 11.353 6.87269 9.56343C7.61395 7.77388 8.70043 6.14785 10.0701 4.77818C11.4398 3.40852 13.0658 2.32204 14.8553 1.58078C16.6449 0.839528 18.5629 0.458008 20.4999 0.458008C24.4119 0.458008 28.1636 2.01202 30.9297 4.77818C33.6959 7.54434 35.2499 11.2961 35.2499 15.208C35.2499 19.12 33.6959 22.8717 30.9297 25.6378C28.1636 28.404 24.4119 29.958 20.4999 29.958Z" fill="white"/>
</svg>
