<svg width="58" height="58" viewBox="0 0 58 58" fill="none" xmlns="http://www.w3.org/2000/svg">
<path d="M8.10279 21.6302C9.67724 14.9181 14.9181 9.67723 21.6302 8.10279C26.4776 6.96574 31.5224 6.96574 36.3698 8.10278C43.0819 9.67723 48.3228 14.9181 49.8972 21.6302C51.0343 26.4776 51.0343 31.5224 49.8972 36.3698C48.3228 43.0819 43.0819 48.3228 36.3698 49.8972C31.5224 51.0343 26.4776 51.0343 21.6302 49.8972C14.9181 48.3228 9.67724 43.0819 8.10279 36.3698C6.96574 31.5224 6.96574 26.4776 8.10279 21.6302Z" stroke="white" stroke-width="3.625"/>
<path d="M24.606 27.2985C25.0972 26.0704 26.0704 25.0972 27.2985 24.606L32.223 22.6362C34.1958 21.8471 36.1535 23.8048 35.3644 25.7775L33.3946 30.702C32.9033 31.9302 31.9302 32.9033 30.702 33.3946L25.7775 35.3644C23.8048 36.1535 21.8471 34.1958 22.6362 32.223L24.606 27.2985Z" stroke="white" stroke-width="3.625" stroke-linecap="round" stroke-linejoin="round"/>
</svg>
