<svg width="14" height="14" viewBox="0 0 14 14" fill="none" xmlns="http://www.w3.org/2000/svg">
<path d="M12.0442 8.77892C11.6641 10.3991 10.3991 11.6641 8.77891 12.0442C7.60885 12.3186 6.39115 12.3186 5.22108 12.0442C3.60092 11.6641 2.33588 10.3991 1.95584 8.77891C1.68138 7.60885 1.68138 6.39115 1.95584 5.22108C2.33588 3.60092 3.60092 2.33588 5.22109 1.95584C6.39115 1.68138 7.60885 1.68138 8.77891 1.95584C10.3991 2.33588 11.6641 3.60092 12.0442 5.22108C12.3186 6.39115 12.3186 7.60885 12.0442 8.77892Z" stroke="#C4C4C4" stroke-width="0.875"/>
<path d="M4.95825 7.00032H9.04159M9.04159 7.00032L7.58325 5.54199M9.04159 7.00032L7.58325 8.45866" stroke="#C4C4C4" stroke-width="0.875" stroke-linecap="round" stroke-linejoin="round"/>
</svg>
