<svg width="36" height="48" viewBox="0 0 36 48" fill="none" xmlns="http://www.w3.org/2000/svg">
<path d="M23.3227 32.081C25.0802 31.6818 26.698 30.9454 28.1006 29.9451L30.8722 40.8367C31.7044 44.1068 28.2063 46.8245 25.0908 45.3282L20.4199 43.085C18.8953 42.3528 17.1049 42.3528 15.5803 43.085L10.9093 45.3282C7.79384 46.8245 4.29575 44.1068 5.12792 40.8367L7.89952 29.9451C9.30214 30.9454 10.92 31.6818 12.6775 32.081M23.3227 32.081C19.8218 32.8764 16.1784 32.8764 12.6775 32.081M23.3227 32.081C28.1703 30.9797 31.9554 27.3138 33.0925 22.6188C33.9137 19.2281 33.9137 15.6994 33.0925 12.3087C31.9554 7.61372 28.1703 3.94781 23.3227 2.84651C19.8218 2.05116 16.1784 2.05116 12.6775 2.84651C7.82983 3.94781 4.04475 7.61371 2.90765 12.3087C2.08645 15.6994 2.08645 19.2281 2.90765 22.6188C4.04475 27.3138 7.82983 30.9797 12.6775 32.081" stroke="white" stroke-width="3.625"/>
</svg>
