<svg width="13" height="13" viewBox="0 0 13 13" fill="none" xmlns="http://www.w3.org/2000/svg">
<path d="M1.24087 8.59453L1.6958 8.48157L1.24087 8.59453ZM1.24087 4.65547L0.785936 4.5425L0.785936 4.5425L1.24087 4.65547ZM12.6341 4.65547L13.0891 4.54251L12.6341 4.65547ZM12.6341 8.59453L13.0891 8.7075L13.0891 8.7075L12.6341 8.59453ZM8.88473 12.0368L8.78332 11.5792L8.78332 11.5792L8.88473 12.0368ZM4.99027 12.0368L5.09168 11.5792L5.09168 11.5792L4.99027 12.0368ZM4.99027 1.21315L4.88886 0.755506L4.88886 0.755506L4.99027 1.21315ZM8.88473 1.21316L8.78333 1.6708L8.78333 1.6708L8.88473 1.21316ZM4.7066 11.974L4.60519 12.4316L4.60519 12.4316L4.7066 11.974ZM9.1684 11.974L9.26981 12.4316L9.26981 12.4316L9.1684 11.974ZM9.1684 1.27601L9.26981 0.818362L9.26981 0.818362L9.1684 1.27601ZM4.7066 1.27601L4.80801 1.73366L4.80801 1.73366L4.7066 1.27601ZM2.3989 2.80634C2.18826 2.65585 1.89549 2.70461 1.745 2.91526C1.5945 3.1259 1.64327 3.41867 1.85391 3.56916L2.3989 2.80634ZM5.73905 5.76877L5.46655 6.15018L5.46655 6.15018L5.73905 5.76877ZM8.13595 5.76877L8.40845 6.15018L8.40845 6.15018L8.13595 5.76877ZM12.0211 3.56916C12.2317 3.41867 12.2805 3.1259 12.13 2.91526C11.9795 2.70461 11.6867 2.65585 11.4761 2.80634L12.0211 3.56916ZM4.80801 1.73366L5.09168 1.6708L4.88886 0.755506L4.60519 0.818363L4.80801 1.73366ZM8.78333 1.6708L9.06699 1.73366L9.26981 0.818362L8.98614 0.755506L8.78333 1.6708ZM9.06699 11.5163L8.78332 11.5792L8.98614 12.4945L9.26981 12.4316L9.06699 11.5163ZM5.09168 11.5792L4.808 11.5163L4.60519 12.4316L4.88886 12.4945L5.09168 11.5792ZM1.6958 8.48157C1.39307 7.26238 1.39307 5.98762 1.6958 4.76843L0.785936 4.5425C0.446355 5.91006 0.446355 7.33994 0.785936 8.7075L1.6958 8.48157ZM12.1792 4.76844C12.4819 5.98763 12.4819 7.26238 12.1792 8.48156L13.0891 8.7075C13.4286 7.33994 13.4286 5.91006 13.0891 4.54251L12.1792 4.76844ZM8.78332 11.5792C7.56751 11.8486 6.30749 11.8486 5.09168 11.5792L4.88886 12.4945C6.23826 12.7935 7.63674 12.7935 8.98614 12.4945L8.78332 11.5792ZM5.09168 1.6708C6.30749 1.4014 7.56751 1.4014 8.78333 1.6708L8.98614 0.755506C7.63674 0.456498 6.23826 0.456498 4.88886 0.755506L5.09168 1.6708ZM4.808 11.5163C3.27892 11.1775 2.07335 10.002 1.6958 8.48157L0.785936 8.7075C1.24921 10.5732 2.7286 12.0158 4.60519 12.4316L4.808 11.5163ZM9.26981 12.4316C11.1464 12.0158 12.6258 10.5732 13.0891 8.7075L12.1792 8.48156C11.8017 10.002 10.5961 11.1775 9.06699 11.5163L9.26981 12.4316ZM9.06699 1.73366C10.5961 2.07248 11.8017 3.248 12.1792 4.76844L13.0891 4.54251C12.6258 2.6768 11.1464 1.23419 9.26981 0.818362L9.06699 1.73366ZM4.60519 0.818363C2.7286 1.23419 1.24921 2.6768 0.785936 4.5425L1.6958 4.76843C2.07335 3.248 3.27892 2.07248 4.80801 1.73366L4.60519 0.818363ZM1.85391 3.56916L5.46655 6.15018L6.01154 5.38736L2.3989 2.80634L1.85391 3.56916ZM8.40845 6.15018L12.0211 3.56916L11.4761 2.80634L7.86346 5.38736L8.40845 6.15018ZM5.46655 6.15018C6.34647 6.77883 7.52853 6.77883 8.40845 6.15018L7.86346 5.38736C7.30954 5.78311 6.56546 5.78311 6.01154 5.38736L5.46655 6.15018Z" fill="white"/>
</svg>
