<svg width="58" height="58" viewBox="0 0 58 58" fill="none" xmlns="http://www.w3.org/2000/svg">
<path d="M33.8334 34.4427V53.167H9.66675C9.666 50.216 10.3408 47.3039 11.6395 44.654C12.9381 42.0041 14.8262 39.6867 17.1589 37.8792C19.4917 36.0718 22.2073 34.8224 25.0975 34.2267C27.9878 33.631 30.9761 33.7049 33.8334 34.4427ZM29.0001 31.417C20.9888 31.417 14.5001 24.9282 14.5001 16.917C14.5001 8.90574 20.9888 2.41699 29.0001 2.41699C37.0113 2.41699 43.5001 8.90574 43.5001 16.917C43.5001 24.9282 37.0113 31.417 29.0001 31.417ZM43.5001 41.0837V33.8337H48.3334V41.0837H55.5834V45.917H48.3334V53.167H43.5001V45.917H36.2501V41.0837H43.5001Z" fill="white"/>
</svg>
