<svg width="58" height="58" viewBox="0 0 58 58" fill="none" xmlns="http://www.w3.org/2000/svg">
<path d="M29.0001 16.9168C34.1276 16.9168 39.0451 18.9537 42.6708 22.5794C46.2965 26.2051 48.3334 31.1226 48.3334 36.2501C48.3334 41.3777 46.2965 46.2952 42.6708 49.9209C39.0451 53.5466 34.1276 55.5835 29.0001 55.5835C23.8726 55.5835 18.9551 53.5466 15.3293 49.9209C11.7036 46.2952 9.66675 41.3777 9.66675 36.2501C9.66675 31.1226 11.7036 26.2051 15.3293 22.5794C18.9551 18.9537 23.8726 16.9168 29.0001 16.9168ZM29.0001 25.3751L25.8028 31.8518L18.6567 32.891L23.8284 37.9297L22.608 45.0492L29.0001 41.6876L35.3922 45.0468L34.1717 37.9297L39.3434 32.8886L32.1973 31.8494L29.0001 25.3751ZM31.4167 4.83105L43.5001 4.83347V12.0835L40.2062 14.8336C37.4728 13.3995 34.4885 12.506 31.4167 12.2019V4.83347V4.83105ZM26.5834 4.83105V12.2019C23.5127 12.5055 20.5292 13.3983 17.7964 14.8312L14.5001 12.0835V4.83347L26.5834 4.83105Z" fill="white"/>
</svg>
