<svg width="13" height="13" viewBox="0 0 13 13" fill="none" xmlns="http://www.w3.org/2000/svg">
<path d="M8.60332 12.1772C9.15428 12.2743 9.72072 12.2743 10.2717 12.1772C11.1572 12.0211 11.8705 11.4266 12.1162 10.6397L12.1684 10.4728C12.2225 10.2994 12.25 10.1199 12.25 9.93962C12.25 9.14454 11.539 8.5 10.6618 8.5H8.21316C7.33605 8.5 6.625 9.14454 6.625 9.93962C6.625 10.1199 6.65247 10.2994 6.70664 10.4728L6.75876 10.6397C7.00445 11.4266 7.71776 12.0211 8.60332 12.1772ZM8.60332 12.1772C4.77622 11.4681 1.78193 8.47378 1.07281 4.64668M1.07281 4.64668C0.975728 4.09572 0.975729 3.52928 1.07281 2.97832C1.22886 2.09276 1.8234 1.37945 2.61026 1.13376L2.77716 1.08164C2.95064 1.02747 3.13008 1 3.31038 1C4.10546 1 4.75 1.71105 4.75 2.58816L4.75 5.03684C4.75 5.91395 4.10546 6.625 3.31038 6.625C3.13008 6.625 2.95064 6.59753 2.77716 6.54335L2.61025 6.49124C1.8234 6.24555 1.22886 5.53224 1.07281 4.64668Z" stroke="white" stroke-width="0.9375"/>
</svg>
