<svg width="20" height="20" viewBox="0 0 20 20" fill="none" xmlns="http://www.w3.org/2000/svg">
<path d="M1.35288 13.0496L0.622697 13.2209L1.35288 13.0496ZM1.35288 6.95043L0.622697 6.77915L1.35288 6.95043ZM18.6471 6.95044L17.9169 7.12171L18.6471 6.95044ZM18.6471 13.0496L17.9169 12.8783L18.6471 13.0496ZM13.0496 18.6471L12.8783 17.9169L13.0496 18.6471ZM6.95044 18.6471L6.77916 19.3773L6.95044 18.6471ZM6.95043 1.35288L6.77916 0.622696L6.95043 1.35288ZM13.0496 1.35288L12.8783 2.08306L13.0496 1.35288ZM9.25 7.38472C9.25 7.79893 9.58579 8.13472 10 8.13472C10.4142 8.13472 10.75 7.79893 10.75 7.38472H9.25ZM10.75 5.83891C10.75 5.4247 10.4142 5.08891 10 5.08891C9.58579 5.08891 9.25 5.4247 9.25 5.83891H10.75ZM9.25 14.1611C9.25 14.5753 9.58579 14.9111 10 14.9111C10.4142 14.9111 10.75 14.5753 10.75 14.1611H9.25ZM10.75 12.6154C10.75 12.2012 10.4142 11.8654 10 11.8654C9.58579 11.8654 9.25 12.2012 9.25 12.6154H10.75ZM8.1101 11.9572C8.46882 11.7501 8.59172 11.2914 8.38462 10.9326C8.17751 10.5739 7.71882 10.451 7.3601 10.6581L8.1101 11.9572ZM6.02139 11.431C5.66267 11.6381 5.53976 12.0968 5.74687 12.4555C5.95398 12.8143 6.41267 12.9372 6.77139 12.7301L6.02139 11.431ZM13.9786 8.56897C14.3373 8.36187 14.4602 7.90317 14.2531 7.54446C14.046 7.18574 13.5873 7.06283 13.2286 7.26994L13.9786 8.56897ZM11.89 8.04278C11.5313 8.24988 11.4084 8.70858 11.6155 9.0673C11.8226 9.42602 12.2813 9.54892 12.64 9.34181L11.89 8.04278ZM7.3601 9.34188C7.71882 9.54898 8.17751 9.42608 8.38462 9.06736C8.59172 8.70864 8.46882 8.24995 8.1101 8.04284L7.3601 9.34188ZM6.77139 7.26994C6.41267 7.06283 5.95398 7.18574 5.74687 7.54446C5.53976 7.90318 5.66267 8.36187 6.02139 8.56898L6.77139 7.26994ZM13.2286 12.7301C13.5873 12.9372 14.046 12.8143 14.2531 12.4555C14.4602 12.0968 14.3373 11.6381 13.9786 11.431L13.2286 12.7301ZM12.64 10.6582C12.2813 10.4511 11.8226 10.574 11.6155 10.9327C11.4084 11.2914 11.5313 11.7501 11.89 11.9572L12.64 10.6582ZM2.08306 12.8783C1.63898 10.9851 1.63898 9.01488 2.08306 7.12171L0.622697 6.77915C0.125768 8.89763 0.125768 11.1024 0.622697 13.2209L2.08306 12.8783ZM17.9169 7.12171C18.361 9.01488 18.361 10.9851 17.9169 12.8783L19.3773 13.2208C19.8742 11.1024 19.8742 8.89764 19.3773 6.77916L17.9169 7.12171ZM12.8783 17.9169C10.9851 18.361 9.01488 18.361 7.12171 17.9169L6.77916 19.3773C8.89764 19.8742 11.1024 19.8742 13.2208 19.3773L12.8783 17.9169ZM7.12171 2.08306C9.01488 1.63898 10.9851 1.63898 12.8783 2.08306L13.2208 0.622696C11.1024 0.125768 8.89763 0.125768 6.77916 0.622696L7.12171 2.08306ZM7.12171 17.9169C4.62161 17.3305 2.6695 15.3784 2.08306 12.8783L0.622697 13.2209C1.33924 16.2756 3.72441 18.6608 6.77916 19.3773L7.12171 17.9169ZM13.2208 19.3773C16.2756 18.6608 18.6608 16.2756 19.3773 13.2208L17.9169 12.8783C17.3305 15.3784 15.3784 17.3305 12.8783 17.9169L13.2208 19.3773ZM12.8783 2.08306C15.3784 2.6695 17.3305 4.62161 17.9169 7.12171L19.3773 6.77916C18.6608 3.72441 16.2756 1.33924 13.2208 0.622696L12.8783 2.08306ZM6.77916 0.622696C3.72441 1.33924 1.33924 3.72441 0.622697 6.77915L2.08306 7.12171C2.6695 4.6216 4.62161 2.6695 7.12171 2.08306L6.77916 0.622696ZM10.75 7.38472V5.83891H9.25V7.38472H10.75ZM10.75 14.1611V12.6154H9.25V14.1611H10.75ZM7.3601 10.6581L6.02139 11.431L6.77139 12.7301L8.1101 11.9572L7.3601 10.6581ZM13.2286 7.26994L11.89 8.04278L12.64 9.34181L13.9786 8.56897L13.2286 7.26994ZM8.1101 8.04284L6.77139 7.26994L6.02139 8.56898L7.3601 9.34188L8.1101 8.04284ZM13.9786 11.431L12.64 10.6582L11.89 11.9572L13.2286 12.7301L13.9786 11.431Z" fill="#FE7E6D"/>
</svg>
